<?xml version="1.0" encoding="UTF-8"?>
<!DOCTYPE svg PUBLIC "-//W3C//DTD SVG 1.1//EN" "http://www.w3.org/Graphics/SVG/1.1/DTD/svg11.dtd">
<!-- Creator: CorelDRAW (Evaluation Version) -->
<svg xmlns="http://www.w3.org/2000/svg" xml:space="preserve" width="8.26772in" height="1.77165in" version="1.1" style="shape-rendering:geometricPrecision; text-rendering:geometricPrecision; image-rendering:optimizeQuality; fill-rule:evenodd; clip-rule:evenodd"
viewBox="0 0 8267.72 1771.65"
 xmlns:xlink="http://www.w3.org/1999/xlink"
 xmlns:xodm="http://www.corel.com/coreldraw/odm/2003">
 <defs>
  <style type="text/css">
   <![CDATA[
    .fil0 {fill:black}
    .fil1 {fill:#00ADB5}
    .fil3 {fill:#7ECFD3}
    .fil2 {fill:white}
   ]]>
  </style>
 </defs>
 <g id="Layer_x0020_1">
  <metadata id="CorelCorpID_0Corel-Layer"/>
  <g id="_2199812232128">
   <g>
    <path class="fil0" d="M5235.74 857.44c0,271.43 60.65,511.75 336.15,557.41 245.81,40.74 487.54,-101.09 483.99,-344.19l-201.57 0.5c-19.1,57.19 -15.87,99.78 -54.81,136.26 -30.3,28.39 -90.98,44.2 -147.22,44.2 -195.38,0 -205.61,-191.25 -205.61,-367.73 0,-155.07 22.66,-288 146.72,-323.17 60.13,-17.05 135.24,-8.76 185.15,20.74 79.34,46.89 45.03,120.88 85.21,156.13l193.86 0.19c-22.65,-482.58 -821.87,-511.15 -821.87,119.68z"/>
    <path class="fil0" d="M4103.11 1402.05l199.23 0.39c2.38,-119.79 0.85,-240.38 0.85,-359.95 0,-129.97 -28.35,-242.05 124.23,-242.05 95.18,0 123.37,42.76 123.37,136.31l0 467.03 200.96 -1.34c-18.28,-319.63 88.71,-734.39 -211.14,-763.49 -145.76,-14.14 -163.63,44.74 -236.55,88.05l-1.11 -387.72 -199.83 -1.51 0 1064.28z"/>
    <path class="fil0" d="M6581.68 1064.75c10.02,86.9 13.55,145.78 -42.39,177.52 -216.53,122.85 -311.94,-218.36 42.39,-177.52zm-416.6 -191.41l192.13 1.92c28.41,-43.33 29.29,-109.13 148.24,-86.83 72.8,13.65 78.5,78.43 78.5,154.78 -94.56,10.1 -459.84,-23.62 -434.59,270.5 13.5,157.22 233.31,305.83 437.59,130.76l24.1 59.09 204.37 0.23c-43.94,-208.24 -30.57,-159.22 -30.56,-387.72 0,-160.35 6.54,-236.16 -93.19,-317.21 -141.67,-115.12 -509.68,-75.54 -526.59,174.49z"/>
    <path class="fil0" d="M2779.6 954.37c15.68,-89 49.71,-153.24 141.49,-154.94 101.07,-1.86 134.46,54.73 135.81,154.94l-277.3 0zm-205.04 52.87l0 52.87c0,337.31 408.73,495.81 661.52,229.74 -15.42,-34.72 -69.43,-86.7 -95.2,-113.46 -45.65,37.27 -98.49,99.86 -215.81,81.13 -91.59,-14.62 -132.85,-75.39 -147.2,-166.3l473.17 0c63.56,-626.7 -676.47,-563.77 -676.47,-83.99z"/>
    <path class="fil0" d="M7626.11 954.37c15.67,-89 49.7,-153.24 141.49,-154.94 101.07,-1.86 134.46,54.73 135.81,154.94l-277.3 0zm-205.04 52.87l0 52.87c0,337.31 408.73,495.81 661.52,229.74 -15.41,-34.72 -69.43,-86.7 -95.2,-113.46 -33.22,27.13 -32.35,40.65 -84.87,63.33 -115.54,49.89 -251.8,18.4 -278.15,-148.5l473.44 0c58.51,-632.18 -676.75,-559.31 -676.75,-83.99z"/>
    <polygon class="fil0" points="1732.72,564.92 2037.05,567.15 2037.04,1403.78 2244.45,1403.78 2244.45,569.02 2552.86,566.48 2553.44,399.23 1732.72,399.34 "/>
    <path class="fil0" d="M3336.48 1007.24c0,609.2 681,450.19 654.98,146.9l-185.51 -8.28c-19.76,106.85 -98.21,134.5 -178.2,105.78 -122.47,-43.97 -134.37,-403.02 7.94,-445.76 114.49,-34.38 147.78,40.67 172.48,124.46l181.13 1.97c29.35,-135.09 -114.43,-316.37 -352.37,-292.7 -186.2,18.52 -300.45,172.15 -300.45,367.62z"/>
    <path class="fil0" d="M7133.29 731.71l-8.09 -76.85 -188.78 -0.09 0 749.01 200.93 -0.91c-0.1,-618.02 -37.65,-550.99 220.27,-567.18l2.88 -187.99c-50.37,-15.95 -96.28,-14.33 -140.19,6.59 -57.98,27.62 -50.24,43.51 -87.03,77.42z"/>
   </g>
   <g>
    <path class="fil1" d="M257.44 1477.01l856.63 2.04 -1.3 58.39 -853.85 -1.95 -1.48 -58.48zm-60.71 -1158.99c-0.49,-78.13 2.48,-120.34 81.91,-123.37 131.36,-5.02 274.65,0.22 407.37,0.22 437.29,0 490.14,-52 489.26,131.01l1.13 1029.46 -979.54 0 -0.13 -1037.32zm-121.49 -54.78l0 1213.72 60.57 1.6c-0.04,49.91 -8.1,139.55 5.74,182.66l1087.7 0c15.07,-43.11 7,-132.75 7,-182.16l60.54 -2.1 0 -1190.23c0,-128.99 -75.98,-215.58 -203.59,-215.58l-814.37 0c-110.87,0 -203.59,80.07 -203.59,192.09z"/>
    <path class="fil2" d="M319.52 1171.83l122.73 1.28 -4.61 119.71 -116.92 -1.62 -1.2 -119.37zm489.68 -0.4l243.31 1.67 0.01 119.42 -244.19 0.62 0.87 -121.7zm-546.03 -916.04l845.69 0c7.35,11.59 8.35,-17.95 8.12,46.69 -0.55,151.08 7.49,694.76 -4.1,751.91l-853.73 -3.71c-11.77,-55.04 -3.64,-571.36 -3.81,-708.76 -0.02,-15.52 -0.75,-32.22 -0.5,-47.48l8.33 -38.65zm-66.31 1099.94l979.54 0 -1.13 -1029.46c0.88,-183.01 -51.96,-131.01 -489.26,-131.01 -132.72,0 -276.01,-5.24 -407.37,-0.22 -79.43,3.04 -82.4,45.25 -81.91,123.37l0.13 1037.32z"/>
    <path class="fil1" d="M380.14 377.02l611.27 0 0.43 520.51 -2.38 29.19 -607.22 0.04 -1.6 -29.25 -0.49 -520.48zm728.72 -121.62l-845.69 0 0 790.88 845.69 0 0 -790.88z"/>
    <path class="fil2" d="M503.81 744.6l363.29 0c-7.67,105.04 -75.28,121.78 -181.06,121.66 -106.28,-0.12 -177.92,-7.15 -182.23,-121.66zm121.48 -303.41l117.74 -1.66 3.71 240.86 -117.69 1.66 -3.77 -240.86zm183.04 -1.98l122.51 0 0.02 121.58 -121.67 0 -0.87 -121.58zm-367.16 0l121.64 0 1.15 113.75 -1.13 7.83 -121.67 0 0 -121.58zm-60.54 458.29l1.6 29.25 607.22 -0.04 2.38 -29.19 -0.43 -520.51 -611.27 0 0.49 520.48z"/>
    <path class="fil1" d="M503.81 744.6c4.31,114.51 75.95,121.54 182.23,121.66 105.78,0.12 173.39,-16.62 181.06,-121.66l-363.29 0z"/>
    <polygon class="fil1" points="808.33,1293.14 1052.52,1292.52 1052.51,1173.1 809.2,1171.44 "/>
    <polygon class="fil1" points="629.06,682.05 746.74,680.39 743.04,439.53 625.29,441.19 "/>
    <path class="fil3" d="M1108.86 255.4l0 790.88 -845.69 0 0 -790.88 -8.33 38.65c-0.24,15.26 0.48,31.96 0.5,47.48 0.17,137.4 -7.96,653.72 3.81,708.76l853.73 3.71c11.59,-57.15 3.55,-600.83 4.1,-751.91 0.23,-64.65 -0.77,-35.1 -8.12,-46.69z"/>
    <polygon class="fil1" points="441.17,560.79 562.83,560.79 563.96,552.96 562.81,439.21 441.17,439.21 "/>
    <polygon class="fil1" points="809.2,560.79 930.87,560.79 930.84,439.21 808.33,439.21 "/>
    <polygon class="fil1" points="320.72,1291.2 437.65,1292.82 442.26,1173.11 319.52,1171.83 "/>
   </g>
  </g>
 </g>
</svg>
